<svg width="34" height="28" viewBox="0 0 34 28" fill="none" xmlns="http://www.w3.org/2000/svg">
<path d="M6.704 11.988C5.552 11.988 4.544 11.76 3.68 11.304C2.84 10.824 2.18 10.176 1.7 9.36C1.22 8.52 0.98 7.56 0.98 6.48C0.98 5.376 1.208 4.416 1.664 3.6C2.144 2.76 2.804 2.112 3.644 1.656C4.508 1.176 5.528 0.935999 6.704 0.935999C7.832 0.935999 8.828 1.176 9.692 1.656C10.556 2.112 11.228 2.76 11.708 3.6C12.188 4.416 12.428 5.376 12.428 6.48C12.428 7.56 12.188 8.52 11.708 9.36C11.228 10.176 10.556 10.824 9.692 11.304C8.828 11.76 7.832 11.988 6.704 11.988ZM6.74 9.864C7.892 9.864 8.732 9.552 9.26 8.928C9.812 8.304 10.088 7.488 10.088 6.48C10.088 5.784 9.956 5.184 9.692 4.68C9.452 4.152 9.08 3.744 8.576 3.456C8.096 3.168 7.484 3.024 6.74 3.024C5.564 3.024 4.7 3.336 4.148 3.96C3.596 4.584 3.32 5.424 3.32 6.48C3.32 7.488 3.596 8.304 4.148 8.928C4.7 9.552 5.564 9.864 6.74 9.864ZM26.828 3.78C25.46 3.78 24.224 4.02 23.12 4.5C22.016 4.956 21.08 5.64 20.312 6.552C19.544 7.44 18.956 8.532 18.548 9.828C18.14 11.1 17.936 12.54 17.936 14.148C17.936 16.26 18.26 18.096 18.908 19.656C19.58 21.216 20.564 22.416 21.86 23.256C23.18 24.096 24.824 24.516 26.792 24.516C27.92 24.516 28.988 24.42 29.996 24.228C31.004 24.036 31.988 23.796 32.948 23.508V26.316C31.988 26.676 30.992 26.94 29.96 27.108C28.952 27.276 27.74 27.36 26.324 27.36C23.708 27.36 21.524 26.82 19.772 25.74C18.02 24.66 16.7 23.124 15.812 21.132C14.948 19.14 14.516 16.8 14.516 14.112C14.516 12.168 14.78 10.392 15.308 8.784C15.86 7.176 16.652 5.784 17.684 4.608C18.74 3.432 20.036 2.532 21.572 1.908C23.108 1.26 24.872 0.935999 26.864 0.935999C28.184 0.935999 29.456 1.068 30.68 1.332C31.904 1.596 32.996 1.968 33.956 2.448L32.66 5.184C31.868 4.824 30.98 4.5 29.996 4.212C29.036 3.924 27.98 3.78 26.828 3.78Z" fill="white"/>
</svg>
